<svg width="4316" height="2926" viewBox="0 0 4316 2926" fill="none" xmlns="http://www.w3.org/2000/svg">
<g id="MAP">
<g id="AREA_OUTSIDE">
<path id="Vector 160" d="M992 2312.5L1007 1808H1192L1163.5 2307L1258 2465.5L852 2373L992 2312.5Z" fill="#BCBABC" stroke="#888888"/>
<path id="WALK" d="M993 2310L996 2275L40.5 2074L54 2169.5L866.5 2377L879.5 2378L893 2379L905.5 2378L919 2377L945.5 2367L966 2352.5L976 2344L984.5 2335L990.5 2323L993 2310Z" fill="#D9D9D9" stroke="#888888"/>
<path id="WALK_2" d="M4104 7.5H4075H4071L4068.5 92L4067.5 131L4066.5 152L4066 171.5L4065 210L4063.5 248.5H4060L4057.5 396L4055.5 545L4051.5 836L4048.5 1056.5L4046.5 1179V1285.5L4044 1305L4030.5 1357.5L4020 1396.5L4013.5 1415L4005.5 1433L3972.5 1506.5L3962.5 1528L3936.5 1577.5L3919.5 1610L3912 1624L3902.5 1637L3840 1716.5L3794.5 1777L3740.5 1851L3671.5 1946L3626 2008L3602 2041L3594 2054L3575 2089.5L3531.5 2170.5L3479 2268L3431.5 2354L3390.5 2336.5V2271.5L3095.5 2261.5V2384V2400L3093.5 2416L3090 2448.5L3085 2498L3079.5 2547.5L3073.5 2603.5L3066 2661.5L3053.5 2758.5L1164.5 2305V2344L1171.5 2384L1185.5 2409.5L1201 2430.5L1220.5 2446L1237.5 2460L1303.5 2471L2111.5 2653.5L2757 2808L3203.5 2924.5H3238.5H3270.5L3300 2909L3329.5 2889.5L3346.5 2874L3369 2808L3404 2705.5L3436.5 2601.5L3470 2507.5L3519 2412L3557 2339.5L3618.5 2234L3669 2150L3781.5 1980L3927.5 1792L3988 1696.5C3996.83 1685.33 4015 1661.6 4017 1656C4019 1650.4 4032.17 1616.33 4038.5 1600L4069 1536.5L4084.5 1493L4098.5 1428.5L4112.5 1326L4104 7.5Z" fill="#D9D9D9" stroke="#D9D9D9" stroke-width="2"/>
<g id="STAIRS_BOTTOM">
<path id="STAIRS" d="M3096.5 2255.5L3390.5 2265.5" stroke="#BFAE9F" stroke-width="10"/>
<path id="STAIRS_2" d="M3093 2226L3395 2236" stroke="#BFAE9F" stroke-width="10"/>
<path id="STAIRS_3" d="M3092 2195L3395 2206" stroke="#BFAE9F" stroke-width="10"/>
<path id="STAIRS_4" d="M3089 2164.5L3395 2176" stroke="#BFAE9F" stroke-width="10"/>
<path id="STAIRS_5" d="M3086.5 2135L3395 2146" stroke="#BFAE9F" stroke-width="10"/>
<path id="STAIRS_6" d="M3084 2104.5L3400 2116" stroke="#BFAE9F" stroke-width="10"/>
<path id="STAIRS_7" d="M3082.5 2074.5L3395 2086" stroke="#BFAE9F" stroke-width="10"/>
<path id="STAIRS_8" d="M3079.5 2045.5L3395 2056" stroke="#BFAE9F" stroke-width="10"/>
<path id="STAIRS_9" d="M3073.5 2016L3395 2026" stroke="#BFAE9F" stroke-width="10"/>
<path id="STAIRS_10" d="M3074.5 1984.5L3395 1996" stroke="#BFAE9F" stroke-width="10"/>
</g>
<g id="STAIRS_RIGHT">
<path id="STAIR" d="M4046 6.5L4038.5 247" stroke="#BFAE9F" stroke-width="10"/>
<path id="STAIR_2" d="M4016.5 6.5L4009 245.5" stroke="#BFAE9F" stroke-width="10"/>
<path id="STAIR_3" d="M3986.5 6.5L3979 243.5" stroke="#BFAE9F" stroke-width="10"/>
<path id="STAIR_4" d="M3956.5 6.5L3949 243.5" stroke="#BFAE9F" stroke-width="10"/>
<path id="STAIR_5" d="M3926.5 6.5L3919 242.5" stroke="#BFAE9F" stroke-width="10"/>
<path id="STAIR_6" d="M3896.5 6.5L3889 241" stroke="#BFAE9F" stroke-width="10"/>
<path id="STAIR_7" d="M3866.5 6.5L3859 240" stroke="#BFAE9F" stroke-width="10"/>
</g>
<g id="WALKWAY">
<path id="WALKWAY_2" d="M45.5 1784V1197H2901.5V11H4065L4058 242.5L3404 218L3397.5 1237L3388 2265.5L3098 2255.5L3094.5 2158.5L3058.5 1817L1193 1803H1009.5L45.5 1784Z" fill="#D5CCBB" stroke="#D5CCBB" stroke-width="10"/>
<g id="Vector 153" opacity="0.5">
<path d="M149.5 1726V1577.5H312.5V1726H149.5Z" fill="#BFAE9F"/>
<path d="M546.5 1750.5V1577.5H646.5V1750.5H546.5Z" fill="#BFAE9F"/>
<path d="M878.5 1750.5V1577.5H988.5V1750.5H878.5Z" fill="#BFAE9F"/>
<path d="M1224.5 1750.5V1577.5H1318.5V1750.5H1224.5Z" fill="#BFAE9F"/>
<path d="M1556.5 1750.5V1592H1652.5V1750.5H1556.5Z" fill="#BFAE9F"/>
<path d="M1888.5 1750.5V1592H1992.5V1750.5H1888.5Z" fill="#BFAE9F"/>
<path d="M2214.5 1750.5V1592H2320V1750.5H2214.5Z" fill="#BFAE9F"/>
<path d="M2558.5 1750.5V1592H2660.5V1750.5H2558.5Z" fill="#BFAE9F"/>
<path d="M2892.5 1750.5V1592H3049.5V1750.5H2892.5Z" fill="#BFAE9F"/>
<path d="M3348.5 1335V1486H3169.5V1335H3348.5Z" fill="#BFAE9F"/>
<path d="M3169.5 1105V991H3348.5V1105H3169.5Z" fill="#BFAE9F"/>
<path d="M3169.5 767V651H3348.5V767H3169.5Z" fill="#BFAE9F"/>
<path d="M3169.5 421V317H3336.5V421H3169.5Z" fill="#BFAE9F"/>
<path d="M149.5 1726V1577.5H312.5V1726H149.5Z" stroke="#BFAE9F" stroke-width="10"/>
<path d="M546.5 1750.5V1577.5H646.5V1750.5H546.5Z" stroke="#BFAE9F" stroke-width="10"/>
<path d="M878.5 1750.5V1577.5H988.5V1750.5H878.5Z" stroke="#BFAE9F" stroke-width="10"/>
<path d="M1224.5 1750.5V1577.5H1318.5V1750.5H1224.5Z" stroke="#BFAE9F" stroke-width="10"/>
<path d="M1556.5 1750.5V1592H1652.5V1750.5H1556.5Z" stroke="#BFAE9F" stroke-width="10"/>
<path d="M1888.5 1750.5V1592H1992.5V1750.5H1888.5Z" stroke="#BFAE9F" stroke-width="10"/>
<path d="M2214.5 1750.5V1592H2320V1750.5H2214.5Z" stroke="#BFAE9F" stroke-width="10"/>
<path d="M2558.5 1750.5V1592H2660.5V1750.5H2558.5Z" stroke="#BFAE9F" stroke-width="10"/>
<path d="M2892.5 1750.5V1592H3049.5V1750.5H2892.5Z" stroke="#BFAE9F" stroke-width="10"/>
<path d="M3348.5 1335V1486H3169.5V1335H3348.5Z" stroke="#BFAE9F" stroke-width="10"/>
<path d="M3169.5 1105V991H3348.5V1105H3169.5Z" stroke="#BFAE9F" stroke-width="10"/>
<path d="M3169.5 767V651H3348.5V767H3169.5Z" stroke="#BFAE9F" stroke-width="10"/>
<path d="M3169.5 421V317H3336.5V421H3169.5Z" stroke="#BFAE9F" stroke-width="10"/>
</g>
</g>
<path id="ENTRANCE" d="M308.147 1533C307.56 1533 307.08 1532.81 306.707 1532.44C306.333 1532.07 306.147 1531.59 306.147 1531V1479C306.147 1478.41 306.333 1477.93 306.707 1477.56C307.08 1477.19 307.56 1477 308.147 1477H344.387C344.973 1477 345.453 1477.19 345.827 1477.56C346.2 1477.93 346.387 1478.41 346.387 1479V1485.4C346.387 1485.93 346.2 1486.39 345.827 1486.76C345.453 1487.13 344.973 1487.32 344.387 1487.32H318.467V1499.88H342.627C343.213 1499.88 343.693 1500.07 344.067 1500.44C344.44 1500.81 344.627 1501.29 344.627 1501.88V1507.8C344.627 1508.33 344.44 1508.79 344.067 1509.16C343.693 1509.53 343.213 1509.72 342.627 1509.72H318.467V1522.68H345.027C345.613 1522.68 346.093 1522.87 346.467 1523.24C346.84 1523.61 347.027 1524.09 347.027 1524.68V1531C347.027 1531.59 346.84 1532.07 346.467 1532.44C346.093 1532.81 345.613 1533 345.027 1533H308.147ZM358.537 1533C357.951 1533 357.471 1532.81 357.097 1532.44C356.724 1532.07 356.537 1531.59 356.537 1531V1479C356.537 1478.41 356.724 1477.93 357.097 1477.56C357.471 1477.19 357.951 1477 358.537 1477H365.817C366.617 1477 367.204 1477.19 367.577 1477.56C367.951 1477.93 368.191 1478.23 368.297 1478.44L389.657 1511.8V1479C389.657 1478.41 389.844 1477.93 390.217 1477.56C390.591 1477.19 391.044 1477 391.577 1477H399.737C400.324 1477 400.804 1477.19 401.177 1477.56C401.551 1477.93 401.737 1478.41 401.737 1479V1531C401.737 1531.53 401.551 1532.01 401.177 1532.44C400.804 1532.81 400.324 1533 399.737 1533H392.377C391.577 1533 390.991 1532.81 390.617 1532.44C390.297 1532.01 390.057 1531.72 389.897 1531.56L368.617 1499.24V1531C368.617 1531.59 368.431 1532.07 368.057 1532.44C367.684 1532.81 367.204 1533 366.617 1533H358.537ZM427.888 1533C427.302 1533 426.822 1532.81 426.448 1532.44C426.075 1532.07 425.888 1531.59 425.888 1531V1488.12H411.328C410.795 1488.12 410.342 1487.93 409.968 1487.56C409.595 1487.19 409.408 1486.73 409.408 1486.2V1479C409.408 1478.41 409.595 1477.93 409.968 1477.56C410.342 1477.19 410.795 1477 411.328 1477H453.248C453.835 1477 454.315 1477.19 454.688 1477.56C455.062 1477.93 455.248 1478.41 455.248 1479V1486.2C455.248 1486.73 455.062 1487.19 454.688 1487.56C454.315 1487.93 453.835 1488.12 453.248 1488.12H438.768V1531C438.768 1531.59 438.582 1532.07 438.208 1532.44C437.835 1532.81 437.355 1533 436.768 1533H427.888ZM464.943 1533C464.357 1533 463.877 1532.81 463.503 1532.44C463.13 1532.07 462.943 1531.59 462.943 1531V1479C462.943 1478.41 463.13 1477.93 463.503 1477.56C463.877 1477.19 464.357 1477 464.943 1477H486.143C492.81 1477 498.063 1478.55 501.903 1481.64C505.743 1484.68 507.663 1489.08 507.663 1494.84C507.663 1498.73 506.73 1501.99 504.863 1504.6C502.997 1507.21 500.49 1509.16 497.343 1510.44L508.623 1530.44C508.783 1530.76 508.863 1531.05 508.863 1531.32C508.863 1531.75 508.703 1532.15 508.383 1532.52C508.063 1532.84 507.663 1533 507.183 1533H498.303C497.343 1533 496.623 1532.76 496.143 1532.28C495.663 1531.75 495.317 1531.27 495.103 1530.84L485.343 1512.52H475.663V1531C475.663 1531.59 475.477 1532.07 475.103 1532.44C474.73 1532.81 474.25 1533 473.663 1533H464.943ZM475.663 1502.36H485.903C488.837 1502.36 490.997 1501.69 492.383 1500.36C493.823 1499.03 494.543 1497.16 494.543 1494.76C494.543 1492.36 493.85 1490.47 492.463 1489.08C491.077 1487.69 488.89 1487 485.903 1487H475.663V1502.36ZM514.195 1533C513.715 1533 513.315 1532.84 512.995 1532.52C512.675 1532.15 512.515 1531.75 512.515 1531.32C512.515 1531.05 512.541 1530.81 512.595 1530.6L531.635 1479.16C531.795 1478.57 532.115 1478.07 532.595 1477.64C533.075 1477.21 533.741 1477 534.595 1477H544.835C545.688 1477 546.355 1477.21 546.835 1477.64C547.315 1478.07 547.635 1478.57 547.795 1479.16L566.835 1530.6C566.888 1530.81 566.915 1531.05 566.915 1531.32C566.915 1531.75 566.755 1532.15 566.435 1532.52C566.115 1532.84 565.715 1533 565.235 1533H556.915C556.115 1533 555.528 1532.81 555.155 1532.44C554.781 1532.07 554.541 1531.72 554.435 1531.4L550.995 1522.44H528.435L524.995 1531.4C524.888 1531.72 524.648 1532.07 524.275 1532.44C523.901 1532.81 523.315 1533 522.515 1533H514.195ZM531.395 1512.12H547.955L539.715 1489.08L531.395 1512.12ZM575.803 1533C575.216 1533 574.736 1532.81 574.363 1532.44C573.989 1532.07 573.803 1531.59 573.803 1531V1479C573.803 1478.41 573.989 1477.93 574.363 1477.56C574.736 1477.19 575.216 1477 575.803 1477H583.083C583.883 1477 584.469 1477.19 584.843 1477.56C585.216 1477.93 585.456 1478.23 585.563 1478.44L606.923 1511.8V1479C606.923 1478.41 607.109 1477.93 607.483 1477.56C607.856 1477.19 608.309 1477 608.843 1477H617.003C617.589 1477 618.069 1477.19 618.443 1477.56C618.816 1477.93 619.003 1478.41 619.003 1479V1531C619.003 1531.53 618.816 1532.01 618.443 1532.44C618.069 1532.81 617.589 1533 617.003 1533H609.643C608.843 1533 608.256 1532.81 607.883 1532.44C607.563 1532.01 607.323 1531.72 607.163 1531.56L585.883 1499.24V1531C585.883 1531.59 585.696 1532.07 585.323 1532.44C584.949 1532.81 584.469 1533 583.883 1533H575.803ZM653.074 1533.8C648.061 1533.8 643.794 1532.97 640.274 1531.32C636.807 1529.61 634.114 1527.16 632.194 1523.96C630.274 1520.71 629.207 1516.76 628.994 1512.12C628.941 1509.93 628.914 1507.59 628.914 1505.08C628.914 1502.57 628.941 1500.17 628.994 1497.88C629.207 1493.29 630.274 1489.4 632.194 1486.2C634.167 1482.95 636.914 1480.47 640.434 1478.76C643.954 1477.05 648.167 1476.2 653.074 1476.2C656.647 1476.2 659.901 1476.65 662.834 1477.56C665.767 1478.47 668.301 1479.77 670.434 1481.48C672.567 1483.19 674.221 1485.19 675.394 1487.48C676.567 1489.77 677.207 1492.33 677.314 1495.16C677.314 1495.64 677.127 1496.04 676.754 1496.36C676.434 1496.68 676.034 1496.84 675.554 1496.84H666.434C665.794 1496.84 665.287 1496.68 664.914 1496.36C664.541 1496.04 664.247 1495.51 664.034 1494.76C663.234 1491.61 661.901 1489.45 660.034 1488.28C658.167 1487.11 655.847 1486.52 653.074 1486.52C649.767 1486.52 647.154 1487.43 645.234 1489.24C643.314 1491.05 642.274 1494.07 642.114 1498.28C641.954 1502.65 641.954 1507.13 642.114 1511.72C642.274 1515.93 643.314 1518.95 645.234 1520.76C647.154 1522.57 649.767 1523.48 653.074 1523.48C655.847 1523.48 658.167 1522.89 660.034 1521.72C661.954 1520.49 663.287 1518.33 664.034 1515.24C664.247 1514.44 664.541 1513.91 664.914 1513.64C665.287 1513.32 665.794 1513.16 666.434 1513.16H675.554C676.034 1513.16 676.434 1513.32 676.754 1513.64C677.127 1513.96 677.314 1514.36 677.314 1514.84C677.207 1517.67 676.567 1520.23 675.394 1522.52C674.221 1524.81 672.567 1526.81 670.434 1528.52C668.301 1530.23 665.767 1531.53 662.834 1532.44C659.901 1533.35 656.647 1533.8 653.074 1533.8ZM688.303 1533C687.716 1533 687.236 1532.81 686.863 1532.44C686.489 1532.07 686.303 1531.59 686.303 1531V1479C686.303 1478.41 686.489 1477.93 686.863 1477.56C687.236 1477.19 687.716 1477 688.303 1477H724.543C725.129 1477 725.609 1477.19 725.983 1477.56C726.356 1477.93 726.543 1478.41 726.543 1479V1485.4C726.543 1485.93 726.356 1486.39 725.983 1486.76C725.609 1487.13 725.129 1487.32 724.543 1487.32H698.623V1499.88H722.783C723.369 1499.88 723.849 1500.07 724.223 1500.44C724.596 1500.81 724.783 1501.29 724.783 1501.88V1507.8C724.783 1508.33 724.596 1508.79 724.223 1509.16C723.849 1509.53 723.369 1509.72 722.783 1509.72H698.623V1522.68H725.183C725.769 1522.68 726.249 1522.87 726.623 1523.24C726.996 1523.61 727.183 1524.09 727.183 1524.68V1531C727.183 1531.59 726.996 1532.07 726.623 1532.44C726.249 1532.81 725.769 1533 725.183 1533H688.303Z" fill="white"/>
<g id="GRAS">
<g id="GRAS_BOTTOM">
<path d="M1191.5 1808L1165 2304.5L3052.5 2757.5L3073.5 2597L3094.5 2398.5V2215.5L3073.5 1961L3052.5 1821.5L1191.5 1808Z" fill="#88DEA0"/>
<path d="M1005.5 1808L996 2275L40 2074.5L46 1788.5L1005.5 1808Z" fill="#88DEA0"/>
<path d="M1191.5 1808L1165 2304.5L3052.5 2757.5L3073.5 2597L3094.5 2398.5V2215.5L3073.5 1961L3052.5 1821.5L1191.5 1808Z" stroke="#05581C" stroke-width="10" stroke-dasharray="20 20"/>
<path d="M1005.5 1808L996 2275L40 2074.5L46 1788.5L1005.5 1808Z" stroke="#05581C" stroke-width="10" stroke-dasharray="20 20"/>
</g>
<path id="GRAS_RIGHT" d="M3598 2044.5L3432 2353.5L3391 2336.5L3408.5 223.5L4059 247.5L4045.5 1190V1295.5L4017.5 1403.5L3967.5 1516.5L3909.5 1627L3824 1735.5L3598 2044.5Z" fill="#88DEA0" stroke="#05581C" stroke-width="10" stroke-dasharray="20 20"/>
</g>
<g id="LOGO_BUS_STOP">
<g id="Italian_traffic_sign_-_fermata_autobus 1" clip-path="url(#clip0_385_3755)">
<g id="g4315">
<path id="rect1875" d="M4316 5H4191V188H4316V5Z" fill="#00408B"/>
<path id="rect3786" d="M4298.61 20.7034H4207.41V110.75H4298.61V20.7034Z" fill="white" stroke="white" stroke-width="6.01039" stroke-linecap="square"/>
<path id="rect1907" d="M4304.88 8.69702H4202.12C4197.38 8.69702 4193.53 14.3337 4193.53 21.2869V171.713C4193.53 178.666 4197.38 184.303 4202.12 184.303H4304.88C4309.62 184.303 4313.47 178.666 4313.47 171.713V21.2869C4313.47 14.3337 4309.62 8.69702 4304.88 8.69702Z" stroke="white" stroke-width="2.44251" stroke-linecap="round" stroke-linejoin="round"/>
<g id="g2821">
<path id="rect1889" fill-rule="evenodd" clip-rule="evenodd" d="M4214.69 64.6082V73.819H4220.5C4220.49 73.7323 4220.47 73.6453 4220.47 73.5577C4220.47 69.9413 4223.42 67.0034 4227.04 67.0034C4230.67 67.0034 4233.61 69.9413 4233.61 73.5577C4233.61 73.6453 4233.59 73.7323 4233.59 73.819H4267.97C4267.97 73.7323 4267.95 73.6453 4267.95 73.5577C4267.95 69.9413 4270.89 67.0034 4274.52 67.0034C4278.14 67.0034 4281.08 69.9413 4281.08 73.5577C4281.08 73.6453 4281.07 73.7323 4281.06 73.819H4293.28V64.6082H4214.69H4214.69Z" fill="black"/>
<path id="rect2782" fill-rule="evenodd" clip-rule="evenodd" d="M4216.26 52.9802L4214.69 63.8229H4223.37V52.9802H4222.44H4216.26ZM4224.25 52.9802V63.8229H4293.28L4290.16 52.9802H4225.39H4224.25ZM4217.33 54.2432H4222.44V62.5818H4216.39L4217.33 54.2432ZM4225.39 54.2432H4237.38V62.5818H4225.39V54.2432ZM4238.43 54.2432H4250.43V62.5818H4238.43V54.2432ZM4251.48 54.2432H4263.46V62.5818H4251.48V54.2432ZM4264.5 54.2432H4276.5V62.5818H4264.5V54.2432ZM4277.55 54.2432H4289.51L4291.6 62.5818H4277.55V54.2432Z" fill="black"/>
<path id="path3707" fill-rule="evenodd" clip-rule="evenodd" d="M4227.04 68.0923C4224.02 68.0923 4221.57 70.5402 4221.57 73.5578C4221.57 76.5755 4224.02 79.0234 4227.04 79.0234C4230.07 79.0234 4232.52 76.5755 4232.52 73.5578C4232.52 70.5402 4230.07 68.0923 4227.04 68.0923ZM4227.04 71.3368C4228.27 71.3368 4229.25 72.3364 4229.25 73.5578C4229.25 74.7793 4228.27 75.7571 4227.04 75.7571C4225.82 75.7571 4224.82 74.7793 4224.82 73.5578C4224.82 72.3364 4225.82 71.3368 4227.04 71.3368Z" fill="black"/>
<path id="path3712" fill-rule="evenodd" clip-rule="evenodd" d="M4274.51 68.0923C4271.49 68.0923 4269.04 70.5402 4269.04 73.5578C4269.04 76.5755 4271.49 79.0234 4274.51 79.0234C4277.54 79.0234 4279.99 76.5755 4279.99 73.5578C4279.99 70.5402 4277.54 68.0923 4274.51 68.0923ZM4274.51 71.3368C4275.74 71.3368 4276.72 72.3364 4276.72 73.5578C4276.72 74.7793 4275.74 75.7571 4274.51 75.7571C4273.29 75.7571 4272.29 74.7793 4272.29 73.5578C4272.29 72.3364 4273.29 71.3368 4274.51 71.3368Z" fill="black"/>
</g>
</g>
</g>
</g>
<path id="Arrow 1" d="M4150.54 1.46447C4148.58 -0.488155 4145.42 -0.488155 4143.46 1.46447L4111.64 33.2843C4109.69 35.2369 4109.69 38.4027 4111.64 40.3553C4113.6 42.308 4116.76 42.308 4118.72 40.3553L4147 12.0711L4175.28 40.3553C4177.24 42.308 4180.4 42.308 4182.36 40.3553C4184.31 38.4027 4184.31 35.2369 4182.36 33.2843L4150.54 1.46447ZM4152 188.5V5H4142V188.5H4152Z" fill="black"/>
<path id="Arrow 2" d="M576.536 1218.46C574.583 1216.51 571.417 1216.51 569.464 1218.46L537.645 1250.28C535.692 1252.24 535.692 1255.4 537.645 1257.36C539.597 1259.31 542.763 1259.31 544.716 1257.36L573 1229.07L601.284 1257.36C603.237 1259.31 606.403 1259.31 608.355 1257.36C610.308 1255.4 610.308 1252.24 608.355 1250.28L576.536 1218.46ZM578 1449L578 1222L568 1222L568 1449L578 1449Z" fill="white"/>
</g>
<g id="FLOOR_0">
<path id="HIDDEN_BUILDING" d="M2900.5 651.5V5H2525L2528.5 651.5H2900.5Z" fill="#888888" stroke="#888888"/>
<g id="AREA_BACKEND">
<path id="BACKEND_ROOM" d="M173 1042V786H319V1042H173Z" fill="#FFFAD2" stroke="#888888" stroke-width="2"/>
<path id="FLOOR_BACKEND" d="M320 708V784H171V1044H269H293V1045H320V1121H292V1150H265V1157H171V1150H75V662H129V634H181V662H291V708H320Z" fill="#FFFAD2" stroke="#FFFAD2" stroke-width="2"/>
</g>
<g id="AREA_BALCONY">
<g id="PILLARS_OUTSIDE">
<g id="PILLAR">
<path id="PILLAR_2" d="M86.5 1335C86.5 1346.86 76.6609 1356.5 64.5 1356.5C52.3391 1356.5 42.5 1346.86 42.5 1335C42.5 1323.14 52.3391 1313.5 64.5 1313.5C76.6609 1313.5 86.5 1323.14 86.5 1335Z" fill="#888888" stroke="#666666"/>
</g>
<g id="PILLAR_3">
<path id="PILLAR_4" d="M113.5 1399C113.5 1410.86 103.661 1420.5 91.5 1420.5C79.3391 1420.5 69.5 1410.86 69.5 1399C69.5 1387.14 79.3391 1377.5 91.5 1377.5C103.661 1377.5 113.5 1387.14 113.5 1399Z" fill="#888888" stroke="#666666"/>
</g>
<g id="PILLAR_5">
<path id="PILLAR_6" d="M177.5 1399C177.5 1410.86 167.661 1420.5 155.5 1420.5C143.339 1420.5 133.5 1410.86 133.5 1399C133.5 1387.14 143.339 1377.5 155.5 1377.5C167.661 1377.5 177.5 1387.14 177.5 1399Z" fill="#888888" stroke="#666666"/>
</g>
<g id="PILLAR_7">
<path id="PILLAR_8" d="M348.5 1399C348.5 1410.86 338.661 1420.5 326.5 1420.5C314.339 1420.5 304.5 1410.86 304.5 1399C304.5 1387.14 314.339 1377.5 326.5 1377.5C338.661 1377.5 348.5 1387.14 348.5 1399Z" fill="#888888" stroke="#666666"/>
</g>
<g id="PILLAR_9">
<path id="PILLAR_10" d="M520.5 1399C520.5 1410.86 510.661 1420.5 498.5 1420.5C486.339 1420.5 476.5 1410.86 476.5 1399C476.5 1387.14 486.339 1377.5 498.5 1377.5C510.661 1377.5 520.5 1387.14 520.5 1399Z" fill="#888888" stroke="#666666"/>
</g>
<g id="PILLAR_11">
<path id="PILLAR_12" d="M692.5 1399C692.5 1410.86 682.661 1420.5 670.5 1420.5C658.339 1420.5 648.5 1410.86 648.5 1399C648.5 1387.14 658.339 1377.5 670.5 1377.5C682.661 1377.5 692.5 1387.14 692.5 1399Z" fill="#888888" stroke="#666666"/>
</g>
<g id="PILLAR_13">
<path id="PILLAR_14" d="M863.5 1399C863.5 1410.86 853.661 1420.5 841.5 1420.5C829.339 1420.5 819.5 1410.86 819.5 1399C819.5 1387.14 829.339 1377.5 841.5 1377.5C853.661 1377.5 863.5 1387.14 863.5 1399Z" fill="#888888" stroke="#666666"/>
</g>
<g id="PILLAR_15">
<path id="PILLAR_16" d="M1035.5 1399C1035.5 1410.86 1025.66 1420.5 1013.5 1420.5C1001.34 1420.5 991.5 1410.86 991.5 1399C991.5 1387.14 1001.34 1377.5 1013.5 1377.5C1025.66 1377.5 1035.5 1387.14 1035.5 1399Z" fill="#888888" stroke="#666666"/>
</g>
<g id="PILLAR_17">
<path id="PILLAR_18" d="M1207.5 1399C1207.5 1410.86 1197.66 1420.5 1185.5 1420.5C1173.34 1420.5 1163.5 1410.86 1163.5 1399C1163.5 1387.14 1173.34 1377.5 1185.5 1377.5C1197.66 1377.5 1207.5 1387.14 1207.5 1399Z" fill="#888888" stroke="#666666"/>
</g>
<g id="PILLAR_19">
<path id="PILLAR_20" d="M1379.5 1399C1379.5 1410.86 1369.66 1420.5 1357.5 1420.5C1345.34 1420.5 1335.5 1410.86 1335.5 1399C1335.5 1387.14 1345.34 1377.5 1357.5 1377.5C1369.66 1377.5 1379.5 1387.14 1379.5 1399Z" fill="#888888" stroke="#666666"/>
</g>
<g id="PILLAR_21">
<path id="PILLAR_22" d="M1551.5 1399C1551.5 1410.86 1541.66 1420.5 1529.5 1420.5C1517.34 1420.5 1507.5 1410.86 1507.5 1399C1507.5 1387.14 1517.34 1377.5 1529.5 1377.5C1541.66 1377.5 1551.5 1387.14 1551.5 1399Z" fill="#888888" stroke="#666666"/>
</g>
<g id="PILLAR_23">
<path id="PILLAR_24" d="M1722.5 1399C1722.5 1410.86 1712.66 1420.5 1700.5 1420.5C1688.34 1420.5 1678.5 1410.86 1678.5 1399C1678.5 1387.14 1688.34 1377.5 1700.5 1377.5C1712.66 1377.5 1722.5 1387.14 1722.5 1399Z" fill="#888888" stroke="#666666"/>
</g>
<g id="PILLAR_25">
<path id="PILLAR_26" d="M1894.5 1399C1894.5 1410.86 1884.66 1420.5 1872.5 1420.5C1860.34 1420.5 1850.5 1410.86 1850.5 1399C1850.5 1387.14 1860.34 1377.5 1872.5 1377.5C1884.66 1377.5 1894.5 1387.14 1894.5 1399Z" fill="#888888" stroke="#666666"/>
</g>
<g id="PILLAR_27">
<path id="PILLAR_28" d="M2066.5 1399C2066.5 1410.86 2056.66 1420.5 2044.5 1420.5C2032.34 1420.5 2022.5 1410.86 2022.5 1399C2022.5 1387.14 2032.34 1377.5 2044.5 1377.5C2056.66 1377.5 2066.5 1387.14 2066.5 1399Z" fill="#888888" stroke="#666666"/>
</g>
<g id="PILLAR_29">
<path id="PILLAR_30" d="M2238.5 1399C2238.5 1410.86 2228.66 1420.5 2216.5 1420.5C2204.34 1420.5 2194.5 1410.86 2194.5 1399C2194.5 1387.14 2204.34 1377.5 2216.5 1377.5C2228.66 1377.5 2238.5 1387.14 2238.5 1399Z" fill="#888888" stroke="#666666"/>
</g>
<g id="PILLAR_31">
<path id="PILLAR_32" d="M2409.5 1399C2409.5 1410.86 2399.66 1420.5 2387.5 1420.5C2375.34 1420.5 2365.5 1410.86 2365.5 1399C2365.5 1387.14 2375.34 1377.5 2387.5 1377.5C2399.66 1377.5 2409.5 1387.14 2409.5 1399Z" fill="#888888" stroke="#666666"/>
</g>
<g id="PILLAR_33">
<path id="PILLAR_34" d="M2581.5 1399C2581.5 1410.86 2571.66 1420.5 2559.5 1420.5C2547.34 1420.5 2537.5 1410.86 2537.5 1399C2537.5 1387.14 2547.34 1377.5 2559.5 1377.5C2571.66 1377.5 2581.5 1387.14 2581.5 1399Z" fill="#888888" stroke="#666666"/>
</g>
<g id="PILLAR_35">
<path id="PILLAR_36" d="M2753.5 1399C2753.5 1410.86 2743.66 1420.5 2731.5 1420.5C2719.34 1420.5 2709.5 1410.86 2709.5 1399C2709.5 1387.14 2719.34 1377.5 2731.5 1377.5C2743.66 1377.5 2753.5 1387.14 2753.5 1399Z" fill="#888888" stroke="#666666"/>
</g>
<g id="PILLAR_37">
<path id="PILLAR_38" d="M2924.5 1399C2924.5 1410.86 2914.66 1420.5 2902.5 1420.5C2890.34 1420.5 2880.5 1410.86 2880.5 1399C2880.5 1387.14 2890.34 1377.5 2902.5 1377.5C2914.66 1377.5 2924.5 1387.14 2924.5 1399Z" fill="#888888" stroke="#666666"/>
</g>
<g id="PILLAR_39">
<path id="PILLAR_40" d="M3088.5 1399C3088.5 1410.86 3078.66 1420.5 3066.5 1420.5C3054.34 1420.5 3044.5 1410.86 3044.5 1399C3044.5 1387.14 3054.34 1377.5 3066.5 1377.5C3078.66 1377.5 3088.5 1387.14 3088.5 1399Z" fill="#888888" stroke="#666666"/>
</g>
<g id="PILLAR_41">
<path id="PILLAR_42" d="M3134.5 1399C3134.5 1410.86 3124.66 1420.5 3112.5 1420.5C3100.34 1420.5 3090.5 1410.86 3090.5 1399C3090.5 1387.14 3100.34 1377.5 3112.5 1377.5C3124.66 1377.5 3134.5 1387.14 3134.5 1399Z" fill="#888888" stroke="#666666"/>
</g>
<g id="PILLAR_43">
<path id="PILLAR_44" d="M3134.5 1335C3134.5 1346.86 3124.66 1356.5 3112.5 1356.5C3100.34 1356.5 3090.5 1346.86 3090.5 1335C3090.5 1323.14 3100.34 1313.5 3112.5 1313.5C3124.66 1313.5 3134.5 1323.14 3134.5 1335Z" fill="#888888" stroke="#666666"/>
</g>
<g id="PILLAR_45">
<path id="PILLAR_46" d="M3135.5 1163C3135.5 1174.86 3125.66 1184.5 3113.5 1184.5C3101.34 1184.5 3091.5 1174.86 3091.5 1163C3091.5 1151.14 3101.34 1141.5 3113.5 1141.5C3125.66 1141.5 3135.5 1151.14 3135.5 1163Z" fill="#888888" stroke="#666666"/>
</g>
<g id="PILLAR_47">
<path id="PILLAR_48" d="M3135.5 991C3135.5 1002.86 3125.66 1012.5 3113.5 1012.5C3101.34 1012.5 3091.5 1002.86 3091.5 991C3091.5 979.136 3101.34 969.5 3113.5 969.5C3125.66 969.5 3135.5 979.136 3135.5 991Z" fill="#888888" stroke="#666666"/>
</g>
<g id="PILLAR_49">
<path id="PILLAR_50" d="M3135.5 820C3135.5 831.864 3125.66 841.5 3113.5 841.5C3101.34 841.5 3091.5 831.864 3091.5 820C3091.5 808.136 3101.34 798.5 3113.5 798.5C3125.66 798.5 3135.5 808.136 3135.5 820Z" fill="#888888" stroke="#666666"/>
</g>
<g id="PILLAR_51">
<path id="PILLAR_52" d="M3134.5 647C3134.5 658.864 3124.66 668.5 3112.5 668.5C3100.34 668.5 3090.5 658.864 3090.5 647C3090.5 635.136 3100.34 625.5 3112.5 625.5C3124.66 625.5 3134.5 635.136 3134.5 647Z" fill="#888888" stroke="#666666"/>
</g>
<g id="PILLAR_53">
<path id="PILLAR_54" d="M3134.5 486C3134.5 497.864 3124.66 507.5 3112.5 507.5C3100.34 507.5 3090.5 497.864 3090.5 486C3090.5 474.136 3100.34 464.5 3112.5 464.5C3124.66 464.5 3134.5 474.136 3134.5 486Z" fill="#888888" stroke="#666666"/>
</g>
<g id="PILLAR_55">
<path id="PILLAR_56" d="M3134.5 314C3134.5 325.864 3124.66 335.5 3112.5 335.5C3100.34 335.5 3090.5 325.864 3090.5 314C3090.5 302.136 3100.34 292.5 3112.5 292.5C3124.66 292.5 3134.5 302.136 3134.5 314Z" fill="#888888" stroke="#666666"/>
</g>
<g id="PILLAR_57">
<path id="PILLAR_58" d="M3134.5 142C3134.5 153.864 3124.66 163.5 3112.5 163.5C3100.34 163.5 3090.5 153.864 3090.5 142C3090.5 130.136 3100.34 120.5 3112.5 120.5C3124.66 120.5 3134.5 130.136 3134.5 142Z" fill="#888888" stroke="#666666"/>
</g>
</g>
</g>
<g id="AREA_STAIRS">
<path id="FLOOR_STAIRS" d="M322 653V158H629V170H632V264H629V340H632V435H629V511H632V606H629V648.5H488V279H464V653H322Z" fill="#FEF5AA" stroke="#F5C41A" stroke-width="2"/>
<g id="STAIRS_11">
<path id="Vector 97" d="M321 330H465" stroke="#E957C4" stroke-opacity="0.4" stroke-width="2"/>
<path id="Vector 98" d="M321 343H465" stroke="#E957C4" stroke-opacity="0.4" stroke-width="2"/>
<path id="Vector 99" d="M321 357H465" stroke="#E957C4" stroke-opacity="0.4" stroke-width="2"/>
<path id="Vector 100" d="M321 370H465" stroke="#E957C4" stroke-opacity="0.4" stroke-width="2"/>
<path id="Vector 101" d="M321 383H465" stroke="#E957C4" stroke-opacity="0.4" stroke-width="2"/>
<path id="Vector 102" d="M321 396H465" stroke="#E957C4" stroke-opacity="0.4" stroke-width="2"/>
<path id="Vector 103" d="M321 409H465" stroke="#E957C4" stroke-opacity="0.4" stroke-width="2"/>
<path id="Vector 104" d="M321 422H465" stroke="#E957C4" stroke-opacity="0.4" stroke-width="2"/>
<path id="Vector 105" d="M321 435H465" stroke="#E957C4" stroke-opacity="0.4" stroke-width="2"/>
<path id="Vector 106" d="M321 449H465" stroke="#E957C4" stroke-opacity="0.4" stroke-width="2"/>
<path id="Vector 108" d="M321 475H465" stroke="#E957C4" stroke-opacity="0.4" stroke-width="2"/>
<path id="Vector 109" d="M321 487H465" stroke="#E957C4" stroke-opacity="0.4" stroke-width="2"/>
<path id="Vector 110" d="M321 501H465" stroke="#E957C4" stroke-opacity="0.4" stroke-width="2"/>
<path id="Vector 111" d="M321 514H465" stroke="#E957C4" stroke-opacity="0.4" stroke-width="2"/>
<path id="Vector 112" d="M321 527H465" stroke="#E957C4" stroke-opacity="0.4" stroke-width="2"/>
<path id="Vector 113" d="M321 540H465" stroke="#E957C4" stroke-opacity="0.4" stroke-width="2"/>
<path id="Vector 114" d="M321 553H465" stroke="#E957C4" stroke-opacity="0.4" stroke-width="2"/>
<path id="Vector 115" d="M321 566H465" stroke="#E957C4" stroke-opacity="0.4" stroke-width="2"/>
<path id="Vector 116" d="M321 579H465" stroke="#E957C4" stroke-opacity="0.4" stroke-width="2"/>
<path id="Vector 117" d="M321 593H465" stroke="#E957C4" stroke-opacity="0.4" stroke-width="2"/>
<path id="Vector 118" d="M321 606H465" stroke="#E957C4" stroke-opacity="0.4" stroke-width="2"/>
<path id="Vector 119" d="M321 619H465" stroke="#E957C4" stroke-opacity="0.4" stroke-width="2"/>
<path id="Vector 120" d="M321 632H465" stroke="#E957C4" stroke-opacity="0.4" stroke-width="2"/>
<path id="Vector 107" d="M321 462H465" stroke="#E957C4" stroke-opacity="0.4" stroke-width="2"/>
<path id="Vector 96" d="M321 317H465" stroke="#E957C4" stroke-opacity="0.4" stroke-width="2"/>
<path id="Vector 121" d="M487 317H630" stroke="#E957C4" stroke-opacity="0.4" stroke-width="2"/>
<path id="Vector 122" d="M487 330H630" stroke="#E957C4" stroke-opacity="0.4" stroke-width="2"/>
<path id="Vector 123" d="M487 343H633" stroke="#E957C4" stroke-opacity="0.4" stroke-width="2"/>
<path id="Vector 124" d="M487 357H633" stroke="#E957C4" stroke-opacity="0.4" stroke-width="2"/>
<path id="Vector 125" d="M487 370H633" stroke="#E957C4" stroke-opacity="0.4" stroke-width="2"/>
<path id="Vector 126" d="M487 383H633" stroke="#E957C4" stroke-opacity="0.4" stroke-width="2"/>
<path id="Vector 127" d="M487 396H633" stroke="#E957C4" stroke-opacity="0.4" stroke-width="2"/>
<path id="Vector 128" d="M487 409H633" stroke="#E957C4" stroke-opacity="0.4" stroke-width="2"/>
<path id="Vector 129" d="M487 422H633" stroke="#E957C4" stroke-opacity="0.4" stroke-width="2"/>
<path id="Vector 130" d="M487 435H633" stroke="#E957C4" stroke-opacity="0.4" stroke-width="2"/>
<path id="Vector 131" d="M487 449H630" stroke="#E957C4" stroke-opacity="0.4" stroke-width="2"/>
<path id="Vector 132" d="M487 462H630" stroke="#E957C4" stroke-opacity="0.4" stroke-width="2"/>
<path id="Vector 133" d="M487 475H630" stroke="#E957C4" stroke-opacity="0.4" stroke-width="2"/>
<path id="Vector 134" d="M487 487H630" stroke="#E957C4" stroke-opacity="0.4" stroke-width="2"/>
<path id="Vector 135" d="M487 501H630" stroke="#E957C4" stroke-opacity="0.4" stroke-width="2"/>
<path id="Vector 136" d="M487 514H633" stroke="#E957C4" stroke-opacity="0.4" stroke-width="2"/>
<path id="Vector 137" d="M487 527H633" stroke="#E957C4" stroke-opacity="0.4" stroke-width="2"/>
<path id="Vector 138" d="M487 540H633" stroke="#E957C4" stroke-opacity="0.4" stroke-width="2"/>
<path id="Vector 139" d="M487 553H633" stroke="#E957C4" stroke-opacity="0.4" stroke-width="2"/>
<path id="Vector 140" d="M487 566H633" stroke="#E957C4" stroke-opacity="0.4" stroke-width="2"/>
<path id="Vector 141" d="M487 579H633" stroke="#E957C4" stroke-opacity="0.4" stroke-width="2"/>
<path id="Vector 142" d="M487 593H633" stroke="#E957C4" stroke-opacity="0.4" stroke-width="2"/>
<path id="Vector 143" d="M487 606H633" stroke="#E957C4" stroke-opacity="0.4" stroke-width="2"/>
<path id="Vector 144" d="M487 619H630" stroke="#E957C4" stroke-opacity="0.4" stroke-width="2"/>
<path id="Vector 145" d="M487 632H630" stroke="#E957C4" stroke-opacity="0.4" stroke-width="2"/>
</g>
<g id="ICON_STAIRS_LEFT">
<rect id="BACKGROUND" width="25" height="25" transform="matrix(1 4.37114e-08 4.37114e-08 -1 526 430)" fill="#E957C4"/>
<g id="PICTOGRAM_STAIRS" clip-path="url(#clip1_385_3755)">
<path id="STAGES" d="M540.343 428.027L540.343 424.228L536.176 424.228L536.176 420.429L532.01 420.429L532.01 416.63L527.843 416.63L527.843 413.781L535.135 413.781L535.135 417.58L539.301 417.58L539.301 421.379L543.468 421.379L543.468 425.178L547.635 425.178L547.635 428.027L540.343 428.027Z" fill="white"/>
<path id="ARROW" d="M540.146 412.158L545.625 416.046L547.264 414.126L541.785 410.238L542.467 409.439L538.081 409.154L539.46 412.962L540.142 412.163L540.146 412.158Z" fill="white"/>
</g>
</g>
<g id="ICON_STAIRS_LEFT_2">
<rect id="BACKGROUND_2" x="399" y="430" width="25" height="25" transform="rotate(180 399 430)" fill="#E957C4"/>
<g id="PICTOGRAM_STAIRS_2" clip-path="url(#clip2_385_3755)">
<path id="STAGES_2" d="M384.657 428.027L384.657 424.228L388.824 424.228L388.824 420.429L392.99 420.429L392.99 416.63L397.157 416.63L397.157 413.781L389.865 413.781L389.865 417.58L385.699 417.58L385.699 421.379L381.532 421.379L381.532 425.178L377.365 425.178L377.365 428.027L384.657 428.027Z" fill="white"/>
<path id="ARROW_2" d="M384.854 412.158L379.375 416.046L377.736 414.126L383.215 410.238L382.533 409.439L386.919 409.154L385.54 412.962L384.858 412.163L384.854 412.158Z" fill="white"/>
</g>
</g>
</g>
<g id="AREA_SPONSORS">
<path id="FLOOR_SPONSORS" d="M647 1194.5V645.5H2524.5V9.5H2905V1194.5H647Z" fill="#777777" stroke="#FFFAD2" stroke-width="2"/>
</g>
<g id="AREA_COFFEE">
<path id="FLOOR_COFFEE_AREA" d="M645 654.284V1185.5H605.709V1193H503.765V1185.5H424.121V1193H323.238V1185.5H302V655.355H478.279V650H628.009V654.284H645Z" fill="#FFFAD2" stroke="#FFFAD2" stroke-width="2"/>
<g id="COFFEE">
<rect id="Rectangle 33" x="340" y="782" width="81" height="261" fill="#DBB67E" stroke="#E28800" stroke-width="3" stroke-dasharray="6 6"/>
</g>
<g id="ICON_CHECKIN">
<rect id="Rectangle 2" x="346" y="890" width="62.9998" height="63" rx="3" fill="#F40058"/>
<path id="Rectangle 1" d="M378.76 890H406C407.657 890 409 891.343 409 893V950C409 951.657 407.657 953 406 953H378.76V890Z" fill="black" fill-opacity="0.2"/>
<path id="Vector" d="M372.017 931.475V924.86H356.5V916.04H372.017V909.425L383.1 920.45L372.017 931.475ZM372.017 898.4H391.967C393.142 898.4 394.27 898.865 395.101 899.692C395.933 900.519 396.4 901.64 396.4 902.81V938.09C396.4 939.26 395.933 940.381 395.101 941.208C394.27 942.035 393.142 942.5 391.967 942.5H372.017C370.841 942.5 369.713 942.035 368.882 941.208C368.05 940.381 367.583 939.26 367.583 938.09V933.68H372.017V938.09H391.967V902.81H372.017V907.22H367.583V902.81C367.583 901.64 368.05 900.519 368.882 899.692C369.713 898.865 370.841 898.4 372.017 898.4Z" fill="white"/>
</g>
</g>
<g id="AREA_BATHROOM">
<path id="FLOOR_BATHROOMS" d="M63 531.988V620.661H73.4791V653H361H465V588H297V146H110.156V149.13H65.6198V173.123H63V261.796H65.6198V352.556H63V442.272H65.6198V531.988H63Z" fill="#777777" stroke="#FFFAD2" stroke-width="2"/>
</g>
<g id="LAYOUT">
<g id="PILLARS">
<g id="PILLARS_TOP" filter="url(#filter0_d_385_3755)">
<path id="PILLAR_59" d="M2425 633V652H2314V633H2316V627H2423V633H2425Z" fill="#888888" stroke="#888888" stroke-width="2"/>
<path id="PILLAR_60" d="M2252 633V652H2141V633H2143V627H2250V633H2252Z" fill="#888888" stroke="#888888" stroke-width="2"/>
<path id="PILLAR_61" d="M2079 633V652H1968V633H1970V627H2077V633H2079Z" fill="#888888" stroke="#888888" stroke-width="2"/>
<path id="PILLAR_62" d="M1906 633V652H1804V633H1806V627H1904V633H1906Z" fill="#888888" stroke="#888888" stroke-width="2"/>
<path id="PILLAR_63" d="M1720 633V652H1635V633H1637V627H1718V633H1720Z" fill="#888888" stroke="#888888" stroke-width="2"/>
<path id="PILLAR_64" d="M1550 633V652H1462V633H1464L1466 627H1547V633H1550Z" fill="#888888" stroke="#888888" stroke-width="2"/>
<path id="PILLAR_65" d="M1376 633V652H1278V633H1281V627H1374V633H1376Z" fill="#888888" stroke="#888888" stroke-width="2"/>
<path id="PILLAR_66" d="M1217 633V652H1106V633H1108V627H1215V633H1217Z" fill="#888888" stroke="#888888" stroke-width="2"/>
<path id="PILLAR_67" d="M1044 633V652H933V633H935V627H1042V633H1044Z" fill="#888888" stroke="#888888" stroke-width="2"/>
<path id="PILLAR_68" d="M4.5 147.5V145.5H109.5V147.5H4.5Z" fill="#888888" stroke="#888888"/>
<path id="PILLAR_69" d="M871 633V652H762V633H764V627H870V633H871Z" fill="#888888" stroke="#888888" stroke-width="2"/>
<path id="PILLAR_70" d="M2487 652V633H2489V627H2520V621H2542V612H2550V619H2553V653H2515V652H2487Z" fill="#888888" stroke="#888888" stroke-width="2"/>
<path id="PILLAR_71" d="M2703 652V631H2721V652H2703Z" fill="#888888" stroke="#888888" stroke-width="2"/>
</g>
<g id="PILLAR_LEFT" filter="url(#filter1_d_385_3755)">
<g id="PILLAR_72">
<path d="M42 166V146H75V170H73V177H65.5V175H60.5V172H40V166H42Z" fill="#888888"/>
<path d="M61 257H40V263H42V339H40V344H42H61V347H66V349H73V342H75V259H73V252H66V255H61V257Z" fill="#888888"/>
<path d="M40 435V430H61V427H66V425H73V432H75V514H73V521H66V519H61V516H40V510.222H42V435H40Z" fill="#888888"/>
<path d="M66 597H73V603H81V634H127V660H73V1152H169V1159H175V1166H173V1172H171L168 1193H42V607H40V601H61V598H66V597Z" fill="#888888"/>
<path d="M42 166V146H75V170H73V177H65.5V175H60.5V172H40V166H42Z" stroke="#888888" stroke-width="2"/>
<path d="M61 257H40V263H42V339H40V344H42H61V347H66V349H73V342H75V259H73V252H66V255H61V257Z" stroke="#888888" stroke-width="2"/>
<path d="M40 435V430H61V427H66V425H73V432H75V514H73V521H66V519H61V516H40V510.222H42V435H40Z" stroke="#888888" stroke-width="2"/>
<path d="M66 597H73V603H81V634H127V660H73V1152H169V1159H175V1166H173V1172H171L168 1193H42V607H40V601H61V598H66V597Z" stroke="#888888" stroke-width="2"/>
</g>
</g>
<g id="PILLAR_BOTTOM" filter="url(#filter2_d_385_3755)">
<path id="PILLAR_73" d="M439 1159V1152H510V1159H517V1166H515V1172H513L510.205 1193H438L436.5 1172H434V1166H432V1159H439Z" fill="#888888" stroke="#888888" stroke-width="2"/>
<path id="PILLAR_74" d="M610 1159V1152H682V1159H689V1166H687V1172H684L682 1193H609L608 1172H605V1166H603V1159H610Z" fill="#888888" stroke="#888888" stroke-width="2"/>
<path id="PILLAR_75" d="M781 1159V1152H854V1159H862V1166H860V1172H856L853.5 1193H781L780 1172H777V1166H775V1159H781Z" fill="#888888" stroke="#888888" stroke-width="2"/>
<path id="PILLAR_76" d="M954 1159V1152H1026V1159H1033V1166H1031V1172H1028L1024.18 1193H953L952 1172H949V1166H947V1159H954Z" fill="#888888" stroke="#888888" stroke-width="2"/>
<path id="PILLAR_77" d="M1124 1159V1152H1199V1159H1206V1166H1204V1172H1200L1196.5 1193H1124.5L1123.5 1172H1120.5V1166H1118.5V1159H1124Z" fill="#888888" stroke="#888888" stroke-width="2"/>
<path id="PILLAR_78" d="M1297 1159V1152H1369V1159H1376V1166H1374V1172H1371L1368.5 1193H1295L1294 1172H1292.5V1166H1290.5V1159H1297Z" fill="#888888" stroke="#888888" stroke-width="2"/>
<path id="PILLAR_79" d="M1469 1159V1152H1544V1159H1550V1166H1548V1172H1545L1544 1193H1468L1467 1172H1464V1166H1462V1159H1469Z" fill="#888888" stroke="#888888" stroke-width="2"/>
<path id="PILLAR_80" d="M1642 1159V1152H1713V1159H1720V1166H1718V1172H1715L1714 1193H1640.5L1637.5 1172H1637V1166H1635V1159H1642Z" fill="#888888" stroke="#888888" stroke-width="2"/>
<path id="PILLAR_81" d="M1811 1159V1152H1886V1159H1893V1166H1891V1172H1888.5L1886 1193H1811L1809 1172H1806V1166H1804V1159H1811Z" fill="#888888" stroke="#888888" stroke-width="2"/>
<path id="PILLAR_82" d="M1985 1159V1152H2057V1159H2064V1166H2062V1172H2060L2057.5 1193H1985.5L1982.5 1172H1980.5V1166H1978V1159H1985Z" fill="#888888" stroke="#888888" stroke-width="2"/>
<path id="PILLAR_83" d="M2157 1159V1152H2230V1159H2237V1166H2235V1172H2232.5L2230 1193H2157L2154.5 1172H2152V1166H2150V1159H2157Z" fill="#888888" stroke="#888888" stroke-width="2"/>
<path id="PILLAR_84" d="M2328 1159V1152H2402V1159H2408.5V1166H2406.5V1172H2404.5L2402 1193H2328L2325.5 1172H2324V1166H2321.5V1159H2328Z" fill="#888888" stroke="#888888" stroke-width="2"/>
<path id="PILLAR_85" d="M2500 1159V1152H2575V1159H2581V1166H2579V1172H2576.5L2574 1193H2500L2497.5 1172H2496V1166H2493.5V1159H2500Z" fill="#888888" stroke="#888888" stroke-width="2"/>
<path id="PILLAR_86" d="M2671 1159V1152H2745V1159H2752V1166H2750V1172H2747L2745 1193H2672L2669.5 1172H2668V1166H2665.5V1159H2671Z" fill="#888888" stroke="#888888" stroke-width="2"/>
<path id="PILLAR_87" d="M260 1167V1159H267V1152H294V1123H320.073V1152H340V1159H346V1167H344V1173H342L340 1193H267L264.5 1173H262V1167H260Z" fill="#888888" stroke="#888888" stroke-width="2"/>
</g>
<g id="PILLAR_RIGHT" filter="url(#filter3_d_385_3755)">
<path id="PILLAR_88" d="M2837 1166V1159H2844V1152H2866V1132H2867V1125H2874V1127H2880V1130L2901 1131V1193H2844L2842 1172H2839V1166H2837Z" fill="#888888" stroke="#888888" stroke-width="2"/>
<path id="PILLAR_89" d="M2875 1041H2867V1034H2866V961H2867V954H2874V956H2880V959L2901 960V1034L2880 1036V1039H2875V1041Z" fill="#888888" stroke="#888888" stroke-width="2"/>
<path id="PILLAR_90" d="M2875 869H2867V862H2866V789H2867V783H2874V785H2880V788L2901 789V863L2881 864V867H2875V869Z" fill="#888888" stroke="#888888" stroke-width="2"/>
<path id="PILLAR_91" d="M2875 697H2867V690H2866V617H2867V611H2874V613H2880V616L2901 617V690L2880 692.5V695H2875V697Z" fill="#888888" stroke="#888888" stroke-width="2"/>
</g>
<g id="PILLAR_CENTER" filter="url(#filter4_d_385_3755)">
<circle id="PILLAR_92" cx="647" cy="821" r="16" fill="#888888"/>
<circle id="PILLAR_93" cx="647" cy="994" r="16" fill="#888888"/>
<g id="Vector 88">
<path d="M320 786V1043H295V1042H271V1038H294V998H178V1038H198V1042H173V965H194V985H295V838H194V861H190V858L173 854V786H198.5V790H178V827H294V790H271V786H295H320Z" fill="#888888"/>
<path d="M173 922V893L190 890V888H194V913H293V914H194V922H173Z" fill="#888888"/>
<path d="M320 786V1043H295V1042H271V1038H294V998H178V1038H198V1042H173V965H194V985H295V838H194V861H190V858L173 854V786H198.5V790H178V827H294V790H271V786H295H320Z" stroke="#888888" stroke-width="2"/>
<path d="M173 922V893L190 890V888H194V913H293V914H194V922H173Z" stroke="#888888" stroke-width="2"/>
</g>
</g>
<g id="PILLAR_ENTRANCE" filter="url(#filter5_d_385_3755)">
<path id="PILLAR_94" d="M466 494V475H486V494H466Z" fill="#888888" stroke="#888888" stroke-width="2"/>
<path id="PILLAR_95" d="M466 324V305H486V324H466Z" fill="#888888" stroke="#888888" stroke-width="2"/>
<path id="PILLAR_96" d="M634 168H631V156H320V706H293V660H183V634H294V146H663V169H646V171H641V174.5H634V168Z" fill="#888888" stroke="#888888" stroke-width="2"/>
<path id="PILLAR_97" d="M631 338V266H634V259H641V268H663V335H641V345H634V338H631Z" fill="#888888" stroke="#888888" stroke-width="2"/>
<path id="PILLAR_98" d="M631 509V437H634V430H641V439L663 439.055V506H641V516H634V509H631Z" fill="#888888" stroke="#888888" stroke-width="2"/>
<path id="PILLAR_99" d="M631 636V608H634V601H641V610H663V627H698V633H700V652H631V648V636Z" fill="#888888" stroke="#888888" stroke-width="2"/>
</g>
</g>
<g id="WINDOWS">
<path id="WINDOW" d="M760.5 652.5H701.5V643.5H760.5V652.5Z" fill="#35799F" stroke="#35799F"/>
<path id="WINDOW_2" d="M931.5 652.5H872.5V643.5H931.5V652.5Z" fill="#35799F" stroke="#35799F"/>
<path id="WINDOW_3" d="M1104.5 652.5H1045.5V643.5H1104.5V652.5Z" fill="#35799F" stroke="#35799F"/>
<path id="WINDOW_4" d="M1276.5 652.5H1218.5V643.5H1276.5V652.5Z" fill="#35799F" stroke="#35799F"/>
<path id="WINDOW_5" d="M1966.61 652.5H1907.5V643H1966.5L1966.61 652.5Z" fill="#35799F" stroke="#35799F"/>
<path id="WINDOW_6" d="M2139.5 652.5H2080.5V647.75V643H2139.5V652.5Z" fill="#35799F" stroke="#35799F"/>
<path id="WINDOW_7" d="M2253.5 652.5V643.5H2312.5V652.5H2253.5Z" fill="#35799F" stroke="#35799F"/>
<path id="WINDOW_8" d="M2426.5 652.5V642H2485.5V652.5H2426.5Z" fill="#35799F" stroke="#35799F"/>
<path id="WINDOW_9" d="M2876 952H2867V871H2877V869H2883V865.5L2901 865V958L2882 957.5V954H2876V952Z" fill="#35799F" stroke="#35799F" stroke-width="2"/>
<path id="WINDOW_10" d="M2754 1168V1159H2835V1168H2837V1174H2840.5L2842 1193H2747L2748.5 1174H2752V1168H2754Z" fill="#35799F" stroke="#35799F" stroke-width="2"/>
<path id="WINDOW_11" d="M2583 1168V1159H2663.5V1168H2666V1174H2668L2670 1193H2576L2578 1174H2581V1168H2583Z" fill="#35799F" stroke="#35799F" stroke-width="2"/>
<path id="WINDOW_12" d="M2410.5 1168V1159H2491.5V1168H2494V1174H2496L2498 1193H2404L2406 1174H2408.5V1168H2410.5Z" fill="#35799F" stroke="#35799F" stroke-width="2"/>
<path id="WINDOW_13" d="M2238.5 1168V1159H2319.5V1168H2322V1174H2324L2326 1193H2232L2234 1174H2236.5V1168H2238.5Z" fill="#35799F" stroke="#35799F" stroke-width="2"/>
<path id="WINDOW_14" d="M2066 1168V1159H2148V1168H2150.5V1174H2153L2155 1193H2059.5L2061.5 1174H2064V1168H2066Z" fill="#35799F" stroke="#35799F" stroke-width="2"/>
<path id="WINDOW_15" d="M1895 1168V1159H1976V1168H1978.5V1174H1981L1983.5 1193H1888L1890 1174H1893V1168H1895Z" fill="#35799F" stroke="#35799F" stroke-width="2"/>
<path id="WINDOW_16" d="M1208 1168V1159H1288.5V1168H1290.5V1174H1292.09L1293 1193H1198.5L1201.5 1174H1206V1168H1208Z" fill="#35799F" stroke="#35799F" stroke-width="2"/>
<path id="WINDOW_17" d="M1380.5 1168V1159H1461V1168H1463V1174H1464.59L1465.5 1193H1371L1374 1174H1378.5V1168H1380.5Z" fill="#35799F" stroke="#35799F" stroke-width="2"/>
<path id="WINDOW_18" d="M1553.5 1168V1159H1634V1168H1636V1174H1637.59L1638.5 1193H1544L1547 1174H1551.5V1168H1553.5Z" fill="#35799F" stroke="#35799F" stroke-width="2"/>
<path id="WINDOW_19" d="M1722.5 1168V1159H1803V1168H1805V1174H1806.59L1807.5 1193H1713L1716 1174H1720.5V1168H1722.5Z" fill="#35799F" stroke="#35799F" stroke-width="2"/>
<path id="WINDOW_20" d="M1035 1168V1159H1116.5V1168H1118.5V1174H1121.59L1122.5 1193H1026.18L1029.5 1174H1033V1168H1035Z" fill="#35799F" stroke="#35799F" stroke-width="2"/>
<path id="WINDOW_21" d="M863.5 1168V1159H945V1168H947V1174H950.088L951 1193H855.5L857.5 1174H861.5V1168H863.5Z" fill="#35799F" stroke="#35799F" stroke-width="2"/>
<path id="WINDOW_22" d="M691 1168V1159H773V1168H775V1174H778.088L779 1193H684L685.818 1174H689V1168H691Z" fill="#35799F" stroke="#35799F" stroke-width="2"/>
<path id="WINDOW_23" d="M177 1168V1159H258V1169H260V1175H263L265 1193H170L172.5 1174H175V1168H177Z" fill="#35799F" stroke="#35799F" stroke-width="2"/>
<path id="WINDOW_24" d="M64 522.999H73V595.154H64.5V596H59V599H40V517.914H59V520.999H64V522.999Z" fill="#35799F" stroke="#35799F" stroke-width="2"/>
<path id="WINDOW_25" d="M63.5 179H73V250H64V253H59V255.086H40V174H58.5V177H63.5V179Z" fill="#35799F" stroke="#35799F" stroke-width="2"/>
<path id="WINDOW_26" d="M643 599H634V518H643V508H663V608L643 608V599Z" fill="#35799F" stroke="#35799F" stroke-width="2"/>
<path id="WINDOW_27" d="M643 428H634V347H643V337H663V437L643 437V428Z" fill="#35799F" stroke="#35799F" stroke-width="2"/>
<path id="WINDOW_28" d="M643 257H634V176.5H643V173H648V171H663V266L643 266V257Z" fill="#35799F" stroke="#35799F" stroke-width="2"/>
<path id="WINDOW_29" d="M64 351H73V423H64.5V425.086H59V428.086H40V346H59V349H64V351Z" fill="#35799F" stroke="#35799F" stroke-width="2"/>
</g>
</g>
<g id="ICON_CLOAKROOM">
<rect id="Rectangle 2_2" x="201" y="876" width="91" height="91" rx="3" fill="#F40058"/>
<path id="Rectangle 1_2" d="M248.32 876H289C290.657 876 292 877.343 292 879V964C292 965.657 290.657 967 289 967H248.32V876Z" fill="black" fill-opacity="0.2"/>
<path id="Vector_2" d="M248.32 886.92C244.941 886.92 241.701 888.262 239.311 890.652C236.922 893.041 235.58 896.281 235.58 899.66H242.86C242.86 898.212 243.435 896.823 244.459 895.799C245.483 894.775 246.872 894.2 248.32 894.2C249.768 894.2 251.157 894.775 252.181 895.799C253.205 896.823 253.78 898.212 253.78 899.66C253.78 901.108 253.205 902.497 252.181 903.521C251.157 904.545 249.768 905.12 248.32 905.12C246.318 905.12 244.68 906.758 244.68 908.76V915.13L213.376 938.608C212.765 939.066 212.313 939.705 212.085 940.435C211.858 941.164 211.865 941.946 212.107 942.671C212.348 943.396 212.812 944.026 213.432 944.473C214.051 944.92 214.796 945.16 215.56 945.16H281.08C281.844 945.16 282.589 944.92 283.208 944.473C283.828 944.026 284.292 943.396 284.533 942.671C284.775 941.946 284.782 941.164 284.554 940.435C284.327 939.705 283.875 939.066 283.264 938.608L251.96 915.13V911.854C254.587 911.071 256.891 909.461 258.53 907.265C260.17 905.068 261.057 902.401 261.06 899.66C261.06 896.281 259.718 893.041 257.328 890.652C254.939 888.262 251.699 886.92 248.32 886.92M248.32 921.5L270.16 937.88H226.48L248.32 921.5Z" fill="white"/>
</g>
</g>
<g id="LOGO">
<g id="logo-mmxxii-red 1" clip-path="url(#clip3_385_3755)">
<path id="Vector_3" d="M1357.8 147.2L1401.4 187.4V150.3H1413.6V214.9L1370.1 174.7V211.9H1357.8V147.2ZM1457 188.9V178.9H1487.4C1487.6 183.6 1487 188 1485.7 192.1C1484.4 196.3 1482.5 199.9 1479.8 203.1C1477.2 206.3 1473.9 208.7 1470 210.6C1466.1 212.4 1461.6 213.3 1456.5 213.3C1450.1 213.3 1444.4 211.9 1439.5 209.2C1434.5 206.5 1430.7 202.7 1427.8 197.8C1425 192.9 1423.6 187.3 1423.6 181C1423.6 174.6 1425 169 1427.9 164.2C1430.8 159.4 1434.7 155.7 1439.7 153C1444.7 150.3 1450.4 149 1456.8 149C1463.1 149 1468.5 150.3 1473 152.8C1477.5 155.4 1481.2 158.8 1484 163L1473.2 169.3C1471.6 166.7 1469.5 164.5 1466.8 162.8C1464.1 161.1 1460.8 160.2 1456.8 160.2C1453.1 160.2 1449.7 161 1446.7 162.7C1443.7 164.4 1441.2 166.7 1439.4 169.8C1437.6 172.9 1436.7 176.5 1436.7 180.8C1436.7 185.1 1437.6 188.8 1439.3 191.9C1441.1 195.1 1443.4 197.5 1446.5 199.2C1449.5 200.9 1452.9 201.8 1456.8 201.8C1461.8 201.8 1465.8 200.5 1468.6 198C1471.4 195.5 1473.4 192.3 1474.5 188.6L1457 188.9ZM1534.9 189.4V211.7H1522.2V150.3H1529.9H1534.8H1542.9C1547.8 150.3 1551.9 151.1 1555.4 152.8C1558.8 154.4 1561.5 156.7 1563.3 159.7C1565.1 162.7 1566 166.1 1566 170C1566 174.3 1564.9 178.1 1562.6 181.2C1560.4 184.3 1557.1 186.6 1553 188L1569.7 211.8H1554.7L1540.3 189.5H1534.9V189.4ZM1534.9 179.4H1542.2C1545.5 179.4 1548.1 178.6 1550 177C1551.9 175.4 1552.9 173.1 1552.9 170.3C1552.9 167.4 1551.9 165.1 1550 163.5C1548.1 161.9 1545.4 161.1 1542.2 161.1H1534.9V179.4ZM1573.3 181C1573.3 176.3 1574.1 172 1575.8 168.1C1577.5 164.2 1579.7 160.8 1582.7 158C1585.6 155.2 1589.1 153 1593 151.4C1597 149.8 1601.3 149 1605.9 149C1610.6 149 1614.9 149.8 1618.8 151.4C1622.7 153 1626.2 155.2 1629.1 158C1632.1 160.8 1634.3 164.2 1636 168.1C1637.6 172 1638.4 176.3 1638.4 181C1638.4 185.6 1637.6 189.9 1636 193.9C1634.4 197.9 1632.1 201.3 1629.2 204.2C1626.3 207.1 1622.9 209.3 1618.9 210.9C1614.9 212.5 1610.6 213.3 1605.8 213.3C1601 213.3 1596.7 212.5 1592.7 210.9C1588.7 209.3 1585.3 207 1582.4 204.2C1579.5 201.3 1577.2 197.9 1575.6 193.9C1574.1 189.9 1573.3 185.6 1573.3 181ZM1586.6 181C1586.6 184.9 1587.4 188.4 1589.1 191.5C1590.7 194.5 1593 196.9 1595.9 198.7C1598.8 200.4 1602.1 201.3 1605.8 201.3C1609.6 201.3 1612.9 200.4 1615.7 198.7C1618.6 197 1620.8 194.6 1622.5 191.5C1624.1 188.5 1625 185 1625 181C1625 177.1 1624.2 173.6 1622.6 170.5C1621 167.5 1618.8 165.1 1615.9 163.3C1613 161.6 1609.7 160.7 1605.8 160.7C1602 160.7 1598.7 161.6 1595.9 163.3C1593 165 1590.8 167.4 1589.1 170.5C1587.5 173.6 1586.6 177.1 1586.6 181ZM1660 177.8L1656 211.7H1642.8L1652 147.2L1677.8 186.8L1703.5 147.2L1712.8 211.7H1699.4L1695.4 177.8L1677.8 206L1660 177.8ZM1733.1 184.3V201H1760V211.7H1733.1H1728.9H1720.8V150.3H1728.9H1733.1H1760V161H1733.1V173.9H1758.3V184.4L1733.1 184.3Z" fill="#DD0031"/>
<path id="Vector_4" d="M1559.1 39L1558.4 39.2L1517.6 53.7L1516.1 54.2L1516.3 55.8L1522.5 109.6L1522.6 110.6L1523.5 111.1L1558 130.2L1558.9 130.7L1559.9 130.2L1594.4 111.1L1595.3 110.6L1595.4 109.6L1601.6 55.8L1601.8 54.2L1600.3 53.7L1559.8 39.2L1559.1 39Z" fill="#DD0031"/>
<path id="Vector_5" d="M1566.2 88.9001C1566.5 88.9001 1566.7 89.0001 1566.9 89.2001C1567.1 89.4001 1567.2 89.6001 1567.2 89.9001H1569.1C1569.1 89.1001 1568.8 88.4001 1568.3 87.9001C1567.8 87.4001 1567 87.1001 1566.3 87.1001C1564.7 87.1001 1563.5 88.4001 1563.5 89.9001V91.8001H1565.4V89.9001C1565.2 89.3001 1565.7 88.9001 1566.2 88.9001Z" fill="#F9F9F9"/>
<path id="Vector_6" d="M1544.7 57.6001H1530.8V59.5001H1545.8L1544.7 57.6001Z" fill="#F9F9F9"/>
<path id="Vector_7" d="M1563.5 74.6999H1558.4L1558.5 74.5999L1555.8 69.8999H1553.6L1556.3 74.5999H1547.7V72.7999C1547.7 72.4999 1547.8 72.2999 1548 72.0999C1548.2 71.8999 1548.4 71.7999 1548.7 71.7999C1549 71.7999 1549.2 71.8999 1549.4 72.0999C1549.6 72.2999 1549.7 72.4999 1549.7 72.7999H1551.6C1551.6 71.9999 1551.3 71.2999 1550.8 70.7999C1550.3 70.2999 1549.5 69.9999 1548.8 69.9999C1548 69.9999 1547.3 70.2999 1546.8 70.7999C1546.3 71.2999 1546 72.0999 1546 72.7999V74.5999H1539V72.7999C1539 72.2999 1539.4 71.8999 1539.9 71.8999C1540.4 71.8999 1540.8 72.2999 1540.8 72.7999H1542.7C1542.7 71.1999 1541.4 69.9999 1539.9 69.9999C1538.3 69.9999 1537.1 71.2999 1537.1 72.7999V74.5999H1534.5V69.8999H1532.6V74.5999H1530.8V76.4999H1564.7L1563.5 74.6999Z" fill="#F9F9F9"/>
<path id="Vector_8" d="M1554.2 66.1H1549.2L1546.5 61.5H1544.3L1547 66.1H1534.5V61.5H1532.6V66.1H1530.8V68H1555.3L1554.2 66.1Z" fill="#F9F9F9"/>
<path id="Vector_9" d="M1572.1 83.1999H1567.8H1567.9L1565.2 78.4999H1563L1565.7 83.1999H1556.5V81.2999C1556.5 80.9999 1556.6 80.7999 1556.8 80.5999C1557 80.3999 1557.2 80.2999 1557.5 80.2999C1557.8 80.2999 1558 80.3999 1558.2 80.5999C1558.4 80.7999 1558.5 80.9999 1558.5 81.2999H1560.4C1560.4 80.4999 1560.1 79.7999 1559.6 79.2999C1559.1 78.7999 1558.3 78.4999 1557.6 78.4999C1556.8 78.4999 1556.1 78.7999 1555.6 79.2999C1555.1 79.7999 1554.8 80.5999 1554.8 81.2999V83.1999H1548V81.2999C1548 80.9999 1548.1 80.7999 1548.3 80.5999C1548.5 80.3999 1548.7 80.2999 1549 80.2999C1549.5 80.2999 1549.9 80.6999 1549.9 81.1999H1551.8C1551.8 79.5999 1550.5 78.3999 1549 78.3999C1548.2 78.3999 1547.5 78.6999 1547 79.1999C1546.5 79.6999 1546.2 80.4999 1546.2 81.1999V83.0999H1539V81.1999C1539 80.6999 1539.4 80.2999 1539.9 80.2999C1540.4 80.2999 1540.8 80.6999 1540.8 81.1999H1542.7C1542.7 79.5999 1541.4 78.3999 1539.9 78.3999C1538.3 78.3999 1537.1 79.6999 1537.1 81.1999V83.0999H1534.5V78.4999H1532.6V83.0999H1530.8V84.9999H1573.3L1572.1 83.1999Z" fill="#F9F9F9"/>
<path id="Vector_10" d="M1588.2 76.5999V74.7H1565.8L1566.9 76.5999H1588.2Z" fill="#F9F9F9"/>
<path id="Vector_11" d="M1584.4 78.5V83.1H1574.3L1575.4 85H1588.1V83.1H1586.3V78.5H1584.4Z" fill="#F9F9F9"/>
<path id="Vector_12" d="M1586.4 91.7001V87H1584.5V91.6H1576.7L1574.1 87.1H1571.9L1574.5 91.6H1556.5V89.7001C1556.5 89.4001 1556.6 89.2 1556.8 89C1557 88.8 1557.2 88.7001 1557.5 88.7001C1557.8 88.7001 1558 88.8 1558.2 89C1558.4 89.2 1558.5 89.4001 1558.5 89.7001H1560.4C1560.4 88.9001 1560.1 88.2001 1559.6 87.7001C1559.1 87.2001 1558.3 86.9001 1557.6 86.9001C1556.8 86.9001 1556.1 87.2001 1555.6 87.7001C1555.1 88.2001 1554.8 89.0001 1554.8 89.7001V91.6H1548V89.7001C1548 89.4001 1548.1 89.2 1548.3 89C1548.5 88.8 1548.7 88.7001 1549 88.7001C1549.5 88.7001 1549.9 89.1 1549.9 89.6H1551.8C1551.8 88 1550.5 86.8 1549 86.8C1548.2 86.8 1547.5 87.1 1547 87.6C1546.5 88.1 1546.2 88.9 1546.2 89.6V91.5H1539V89.6C1539 89.1 1539.4 88.7001 1539.9 88.7001C1540.2 88.7001 1540.4 88.8 1540.6 89C1540.8 89.2 1540.9 89.4001 1540.9 89.7001H1542.8C1542.8 88.9001 1542.5 88.2001 1542 87.7001C1541.5 87.2001 1540.7 86.9001 1540 86.9001C1538.4 86.9001 1537.2 88.2001 1537.2 89.7001V91.6H1534.6V87.1H1532.7V91.6H1524.7L1524.9 93.5H1593.7L1593.9 91.6H1586.4V91.7001Z" fill="#F9F9F9"/>
<path id="Vector_13" d="M1543.9 96.5V117.9L1545.8 119V96.5H1543.9Z" fill="#F9F9F9"/>
<path id="Vector_14" d="M1548.7 96.5V120.5L1550.6 121.6V96.5H1548.7Z" fill="#F9F9F9"/>
<path id="Vector_15" d="M1539.2 96.5V115.3L1541.1 116.4V96.5H1539.2Z" fill="#F9F9F9"/>
<path id="Vector_16" d="M1534.5 96.5V112.7L1536.4 113.8V96.5H1534.5Z" fill="#F9F9F9"/>
<path id="Vector_17" d="M1525.1 96.5L1526.5 108.2L1527 108.5V96.5H1525.1Z" fill="#F9F9F9"/>
<path id="Vector_18" d="M1558.2 96.5V125.8L1559.2 126.3L1560.1 125.8V96.5H1558.2Z" fill="#F9F9F9"/>
<path id="Vector_19" d="M1529.7 96.5V110L1531.6 111.1V96.5H1529.7Z" fill="#F9F9F9"/>
<path id="Vector_20" d="M1553.4 96.5V123.1L1555.3 124.2V96.5H1553.4Z" fill="#F9F9F9"/>
<path id="Vector_21" d="M1586.6 96.5V111.1L1588.5 110V96.5H1586.6Z" fill="#F9F9F9"/>
<path id="Vector_22" d="M1562.9 96.5V124.2L1564.8 123.1V96.5H1562.9Z" fill="#F9F9F9"/>
<path id="Vector_23" d="M1581.9 96.5V113.7L1583.8 112.6V96.5H1581.9Z" fill="#F9F9F9"/>
<path id="Vector_24" d="M1591.4 96.5V108.5L1591.9 108.2L1593.3 96.5H1591.4Z" fill="#F9F9F9"/>
<path id="Vector_25" d="M1577.1 96.5V116.3L1579 115.2V96.5H1577.1Z" fill="#F9F9F9"/>
<path id="Vector_26" d="M1567.7 96.5V121.6L1569.6 120.5V96.5H1567.7Z" fill="#F9F9F9"/>
<path id="Vector_27" d="M1572.4 96.5V119L1574.3 117.9V96.5H1572.4Z" fill="#F9F9F9"/>
<path id="Vector_28" d="M1504.4 242.8L1502.6 258.7H1498L1501.6 231.3L1512.3 249L1523 231.3L1526.6 258.7H1522L1520.2 242.9L1512.2 256.3L1504.4 242.8Z" fill="#DD0031"/>
<path id="Vector_29" d="M1540.9 242.8L1539.1 258.7H1534.5L1538.1 231.3L1548.8 249L1559.5 231.3L1563.1 258.7H1558.5L1556.7 242.9L1548.8 256.3L1540.9 242.8Z" fill="#DD0031"/>
<path id="Vector_30" d="M1586.2 232.6H1591.6L1583.7 245.1L1592.2 258.6H1586.8L1581.2 248.6L1575.4 258.6H1570.1L1578.8 245.1L1571 232.6H1576.4L1581.3 241.4L1586.2 232.6Z" fill="#DD0031"/>
<path id="Vector_31" d="M1613.9 232.6H1619.3L1611.4 245.1L1619.9 258.6H1614.5L1608.9 248.6L1603.1 258.6H1597.8L1606.5 245.1L1598.7 232.6H1604.1L1609 241.4L1613.9 232.6Z" fill="#DD0031"/>
<path id="Vector_32" d="M1627.4 232.6V258.6" stroke="#DD0031" stroke-width="5" stroke-miterlimit="10"/>
<path id="Vector_33" d="M1639.8 232.574V258.574" stroke="#DD0031" stroke-width="5" stroke-miterlimit="10"/>
</g>
</g>
</g>
<defs>
<filter id="filter0_d_385_3755" x="0" y="145" width="2726" height="517" filterUnits="userSpaceOnUse" color-interpolation-filters="sRGB">
<feFlood flood-opacity="0" result="BackgroundImageFix"/>
<feColorMatrix in="SourceAlpha" type="matrix" values="0 0 0 0 0 0 0 0 0 0 0 0 0 0 0 0 0 0 127 0" result="hardAlpha"/>
<feOffset dy="4"/>
<feGaussianBlur stdDeviation="2"/>
<feComposite in2="hardAlpha" operator="out"/>
<feColorMatrix type="matrix" values="0 0 0 0 0 0 0 0 0 0 0 0 0 0 0 0 0 0 0.25 0"/>
<feBlend mode="normal" in2="BackgroundImageFix" result="effect1_dropShadow_385_3755"/>
<feBlend mode="normal" in="SourceGraphic" in2="effect1_dropShadow_385_3755" result="shape"/>
</filter>
<filter id="filter1_d_385_3755" x="35" y="145" width="145" height="1057" filterUnits="userSpaceOnUse" color-interpolation-filters="sRGB">
<feFlood flood-opacity="0" result="BackgroundImageFix"/>
<feColorMatrix in="SourceAlpha" type="matrix" values="0 0 0 0 0 0 0 0 0 0 0 0 0 0 0 0 0 0 127 0" result="hardAlpha"/>
<feOffset dy="4"/>
<feGaussianBlur stdDeviation="2"/>
<feComposite in2="hardAlpha" operator="out"/>
<feColorMatrix type="matrix" values="0 0 0 0 0 0 0 0 0 0 0 0 0 0 0 0 0 0 0.25 0"/>
<feBlend mode="normal" in2="BackgroundImageFix" result="effect1_dropShadow_385_3755"/>
<feBlend mode="normal" in="SourceGraphic" in2="effect1_dropShadow_385_3755" result="shape"/>
</filter>
<filter id="filter2_d_385_3755" x="255" y="1122" width="2502" height="80" filterUnits="userSpaceOnUse" color-interpolation-filters="sRGB">
<feFlood flood-opacity="0" result="BackgroundImageFix"/>
<feColorMatrix in="SourceAlpha" type="matrix" values="0 0 0 0 0 0 0 0 0 0 0 0 0 0 0 0 0 0 127 0" result="hardAlpha"/>
<feOffset dy="4"/>
<feGaussianBlur stdDeviation="2"/>
<feComposite in2="hardAlpha" operator="out"/>
<feColorMatrix type="matrix" values="0 0 0 0 0 0 0 0 0 0 0 0 0 0 0 0 0 0 0.25 0"/>
<feBlend mode="normal" in2="BackgroundImageFix" result="effect1_dropShadow_385_3755"/>
<feBlend mode="normal" in="SourceGraphic" in2="effect1_dropShadow_385_3755" result="shape"/>
</filter>
<filter id="filter3_d_385_3755" x="2832" y="610" width="74" height="592" filterUnits="userSpaceOnUse" color-interpolation-filters="sRGB">
<feFlood flood-opacity="0" result="BackgroundImageFix"/>
<feColorMatrix in="SourceAlpha" type="matrix" values="0 0 0 0 0 0 0 0 0 0 0 0 0 0 0 0 0 0 127 0" result="hardAlpha"/>
<feOffset dy="4"/>
<feGaussianBlur stdDeviation="2"/>
<feComposite in2="hardAlpha" operator="out"/>
<feColorMatrix type="matrix" values="0 0 0 0 0 0 0 0 0 0 0 0 0 0 0 0 0 0 0.25 0"/>
<feBlend mode="normal" in2="BackgroundImageFix" result="effect1_dropShadow_385_3755"/>
<feBlend mode="normal" in="SourceGraphic" in2="effect1_dropShadow_385_3755" result="shape"/>
</filter>
<filter id="filter4_d_385_3755" x="168" y="785" width="499" height="267" filterUnits="userSpaceOnUse" color-interpolation-filters="sRGB">
<feFlood flood-opacity="0" result="BackgroundImageFix"/>
<feColorMatrix in="SourceAlpha" type="matrix" values="0 0 0 0 0 0 0 0 0 0 0 0 0 0 0 0 0 0 127 0" result="hardAlpha"/>
<feOffset dy="4"/>
<feGaussianBlur stdDeviation="2"/>
<feComposite in2="hardAlpha" operator="out"/>
<feColorMatrix type="matrix" values="0 0 0 0 0 0 0 0 0 0 0 0 0 0 0 0 0 0 0.25 0"/>
<feBlend mode="normal" in2="BackgroundImageFix" result="effect1_dropShadow_385_3755"/>
<feBlend mode="normal" in="SourceGraphic" in2="effect1_dropShadow_385_3755" result="shape"/>
</filter>
<filter id="filter5_d_385_3755" x="178" y="145" width="527" height="570" filterUnits="userSpaceOnUse" color-interpolation-filters="sRGB">
<feFlood flood-opacity="0" result="BackgroundImageFix"/>
<feColorMatrix in="SourceAlpha" type="matrix" values="0 0 0 0 0 0 0 0 0 0 0 0 0 0 0 0 0 0 127 0" result="hardAlpha"/>
<feOffset dy="4"/>
<feGaussianBlur stdDeviation="2"/>
<feComposite in2="hardAlpha" operator="out"/>
<feColorMatrix type="matrix" values="0 0 0 0 0 0 0 0 0 0 0 0 0 0 0 0 0 0 0.25 0"/>
<feBlend mode="normal" in2="BackgroundImageFix" result="effect1_dropShadow_385_3755"/>
<feBlend mode="normal" in="SourceGraphic" in2="effect1_dropShadow_385_3755" result="shape"/>
</filter>
<clipPath id="clip0_385_3755">
<rect width="125" height="183" fill="white" transform="translate(4191 5)"/>
</clipPath>
<clipPath id="clip1_385_3755">
<rect width="25" height="22.7941" fill="white" transform="matrix(1 4.37114e-08 4.37114e-08 -1 526 428.247)"/>
</clipPath>
<clipPath id="clip2_385_3755">
<rect width="25" height="22.7941" fill="white" transform="translate(399 428.247) rotate(180)"/>
</clipPath>
<clipPath id="clip3_385_3755">
<rect width="403" height="220" fill="white" transform="translate(1357 39)"/>
</clipPath>
</defs>
</svg>
